<?xml version="1.0" encoding="UTF-8" standalone="no" ?>
<!DOCTYPE svg PUBLIC "-//W3C//DTD SVG 1.1//EN" "http://www.w3.org/Graphics/SVG/1.1/DTD/svg11.dtd">
<svg xmlns="http://www.w3.org/2000/svg" xmlns:xlink="http://www.w3.org/1999/xlink" version="1.1" width="1000" height="1000" viewBox="0 0 1000 1000" xml:space="preserve">
<desc>Created with Fabric.js 5.2.4</desc>
<defs>
</defs>
<g transform="matrix(1 0 0 1 540 540)" id="c45bb9ec-72db-4b55-8643-f1f5b761a426"  >
</g>
<g transform="matrix(1 0 0 1 540 540)" id="c8bda65e-2687-443b-aa44-2cbaf2fba7bd"  >
<rect style="stroke: none; stroke-width: 1; stroke-dasharray: none; stroke-linecap: butt; stroke-dashoffset: 0; stroke-linejoin: miter; stroke-miterlimit: 4; fill: rgb(255,255,255); fill-rule: nonzero; opacity: 1; visibility: hidden;" vector-effect="non-scaling-stroke"  x="-540" y="-540" rx="0" ry="0" width="1080" height="1080" />
</g>
<g transform="matrix(0.59 0 0 0.59 472.89 477.92)"  >
<path style="stroke: none; stroke-width: 1; stroke-dasharray: none; stroke-linecap: butt; stroke-dashoffset: 0; stroke-linejoin: miter; stroke-miterlimit: 4; fill: rgb(255,0,0); fill-rule: evenodd; opacity: 1;" vector-effect="non-scaling-stroke"  transform=" translate(-4676.37, 80.88)" d="M 4703.022 -446.921 C 4709.081 -479.933 4762.853 -513.333 4809.222 -542.137 C 4709.349999999999 -513.7959999999999 4610.358 -473.73999999999995 4565.914 -427.3709999999999 C 4494.6359999999995 -353.0039999999999 4768.673 -242.05799999999994 4877.335999999999 -200.1659999999999 C 5124.643999999999 -104.84599999999992 5566.860999999999 109.6290000000001 5367.981999999999 361.966 C 5093.019999999999 710.8330000000001 4109.444999999999 450.765 3960.173999999999 272.182 C 3899.984999999999 200.173 3954.084999999999 129.28300000000002 4045.763999999999 97.13700000000003 C 4137.472999999999 64.97600000000003 4155.053999999999 98.12200000000003 4090.6859999999992 140.13300000000004 C 3887.687999999999 272.6 4471.877999999999 240.03500000000003 4537.857999999999 235.30400000000003 C 5253.364999999999 184.05500000000004 4572.272999999999 -4.526999999999958 4376.736999999999 -169.46799999999996 C 4238.3009999999995 -286.234 4273.759999999999 -426.31199999999995 4495.025999999999 -542.526 C 4620.030999999999 -608.1769999999999 4986.163999999999 -739.853 5132.211999999999 -681.3499999999999 C 5341.492999999999 -597.5059999999999 4684.278999999999 -344.7809999999999 4703.0239999999985 -446.9369999999999 L 4703.0239999999985 -446.921 z" stroke-linecap="round" />
</g>
<g transform="matrix(0.6 0 0 0.6 400.73 566.84)"  >
<path style="stroke: none; stroke-width: 1; stroke-dasharray: none; stroke-linecap: butt; stroke-dashoffset: 0; stroke-linejoin: miter; stroke-miterlimit: 4; fill: rgb(132,16,16); fill-rule: evenodd; opacity: 1;" vector-effect="non-scaling-stroke"  transform=" translate(-4550.97, -70.52)" d="M 4474.847 -102.144 C 4813.61 110.53999999999999 4550.228999999999 229.993 4246.0599999999995 242.574 C 4368.825999999999 245.454 4510.156999999999 237.216 4537.871999999999 235.32100000000003 C 5141.762 194.19 4749.182 50.441 4474.847 -102.144 z" stroke-linecap="round" />
</g>
</svg>